<svg width="48" height="48" viewBox="0 0 48 48" fill="none" xmlns="http://www.w3.org/2000/svg">
<rect x="12" y="14.5" width="1" height="1" fill="black"/>
<rect x="13" y="13.5" width="1" height="1" fill="black"/>
<rect x="14" y="12.5" width="1" height="1" fill="black"/>
<rect x="15" y="12.5" width="1" height="1" fill="black"/>
<rect x="16" y="12.5" width="1" height="1" fill="black"/>
<rect x="17" y="12.5" width="1" height="1" fill="black"/>
<rect x="18" y="12.5" width="1" height="1" fill="black"/>
<rect x="19" y="12.5" width="1" height="1" fill="black"/>
<rect x="20" y="12.5" width="1" height="1" fill="black"/>
<rect x="21" y="12.5" width="1" height="1" fill="black"/>
<rect x="22" y="13.5" width="1" height="1" fill="black"/>
<rect x="23" y="14.5" width="1" height="1" fill="black"/>
<rect x="10" y="15.5" width="1" height="1" fill="black"/>
<rect x="9" y="16.5" width="1" height="1" fill="black"/>
<rect x="8" y="17.5" width="1" height="1" fill="black"/>
<rect x="8" y="18.5" width="1" height="1" fill="black"/>
<rect x="8" y="19.5" width="1" height="1" fill="black"/>
<rect x="8" y="20.5" width="1" height="1" fill="black"/>
<rect x="8" y="21.5" width="1" height="1" fill="black"/>
<rect x="8" y="22.5" width="1" height="1" fill="black"/>
<rect x="8" y="23.5" width="1" height="1" fill="black"/>
<rect x="8" y="24.5" width="1" height="1" fill="black"/>
<rect x="8" y="25.5" width="1" height="1" fill="black"/>
<rect x="8" y="26.5" width="1" height="1" fill="black"/>
<rect x="8" y="27.5" width="1" height="1" fill="black"/>
<rect x="8" y="28.5" width="1" height="1" fill="black"/>
<rect x="8" y="29.5" width="1" height="1" fill="black"/>
<rect x="8" y="30.5" width="1" height="1" fill="black"/>
<rect x="8" y="31.5" width="1" height="1" fill="black"/>
<rect x="8" y="32.5" width="1" height="1" fill="black"/>
<rect x="9" y="33.5" width="1" height="1" fill="black"/>
<rect x="10" y="34.5" width="1" height="1" fill="black"/>
<rect x="11" y="34.5" width="1" height="1" fill="black"/>
<rect x="12" y="34.5" width="1" height="1" fill="black"/>
<rect x="13" y="34.5" width="1" height="1" fill="black"/>
<rect x="14" y="34.5" width="1" height="1" fill="black"/>
<rect x="15" y="34.5" width="1" height="1" fill="black"/>
<rect x="16" y="34.5" width="1" height="1" fill="black"/>
<rect x="17" y="34.5" width="1" height="1" fill="black"/>
<rect x="18" y="34.5" width="1" height="1" fill="black"/>
<rect x="19" y="34.5" width="1" height="1" fill="black"/>
<rect x="20" y="34.5" width="1" height="1" fill="black"/>
<rect x="21" y="34.5" width="1" height="1" fill="black"/>
<rect x="22" y="34.5" width="1" height="1" fill="black"/>
<rect x="23" y="34.5" width="1" height="1" fill="black"/>
<rect x="24" y="34.5" width="1" height="1" fill="black"/>
<rect x="25" y="34.5" width="1" height="1" fill="black"/>
<rect x="26" y="34.5" width="1" height="1" fill="black"/>
<rect x="27" y="34.5" width="1" height="1" fill="black"/>
<rect x="28" y="34.5" width="1" height="1" fill="black"/>
<rect x="29" y="34.5" width="1" height="1" fill="black"/>
<rect x="30" y="34.5" width="1" height="1" fill="black"/>
<rect x="31" y="34.5" width="1" height="1" fill="black"/>
<rect x="32" y="34.5" width="1" height="1" fill="black"/>
<rect x="33" y="34.5" width="1" height="1" fill="black"/>
<rect x="34" y="34.5" width="1" height="1" fill="black"/>
<rect x="35" y="34.5" width="1" height="1" fill="black"/>
<rect x="36" y="34.5" width="1" height="1" fill="black"/>
<rect x="37" y="34.5" width="1" height="1" fill="black"/>
<rect x="38" y="33.5" width="1" height="1" fill="black"/>
<rect x="11" y="15.5" width="1" height="1" fill="black"/>
<rect x="12" y="15.5" width="1" height="1" fill="black"/>
<rect x="13" y="15.5" width="1" height="1" fill="black"/>
<rect x="14" y="15.5" width="1" height="1" fill="black"/>
<rect x="15" y="15.5" width="1" height="1" fill="black"/>
<rect x="16" y="15.5" width="1" height="1" fill="black"/>
<rect x="17" y="15.5" width="1" height="1" fill="black"/>
<rect x="18" y="15.5" width="1" height="1" fill="black"/>
<rect x="19" y="15.5" width="1" height="1" fill="black"/>
<rect x="20" y="15.5" width="1" height="1" fill="black"/>
<rect x="21" y="15.5" width="1" height="1" fill="black"/>
<rect x="22" y="15.5" width="1" height="1" fill="black"/>
<rect x="23" y="15.5" width="1" height="1" fill="black"/>
<rect x="24" y="15.5" width="1" height="1" fill="black"/>
<rect x="25" y="15.5" width="1" height="1" fill="black"/>
<rect x="26" y="15.5" width="1" height="1" fill="black"/>
<rect x="27" y="15.5" width="1" height="1" fill="black"/>
<rect x="28" y="15.5" width="1" height="1" fill="black"/>
<rect x="29" y="15.5" width="1" height="1" fill="black"/>
<rect x="30" y="15.5" width="1" height="1" fill="black"/>
<rect x="31" y="15.5" width="1" height="1" fill="black"/>
<rect x="32" y="15.5" width="1" height="1" fill="black"/>
<rect x="33" y="15.5" width="1" height="1" fill="black"/>
<rect x="34" y="15.5" width="1" height="1" fill="black"/>
<rect x="35" y="15.5" width="1" height="1" fill="black"/>
<rect x="36" y="15.5" width="1" height="1" fill="black"/>
<rect x="37" y="15.5" width="1" height="1" fill="black"/>
<rect x="38" y="16.5" width="1" height="1" fill="black"/>
<rect x="39" y="17.5" width="1" height="1" fill="black"/>
<rect x="39" y="18.5" width="1" height="1" fill="black"/>
<rect x="39" y="19.5" width="1" height="1" fill="black"/>
<rect x="39" y="20.5" width="1" height="1" fill="black"/>
<rect x="39" y="21.5" width="1" height="1" fill="black"/>
<rect x="39" y="22.5" width="1" height="1" fill="black"/>
<rect x="39" y="23.5" width="1" height="1" fill="black"/>
<rect x="39" y="24.5" width="1" height="1" fill="black"/>
<rect x="39" y="25.5" width="1" height="1" fill="black"/>
<rect x="39" y="26.5" width="1" height="1" fill="black"/>
<rect x="39" y="27.5" width="1" height="1" fill="black"/>
<rect x="39" y="28.5" width="1" height="1" fill="black"/>
<rect x="39" y="29.5" width="1" height="1" fill="black"/>
<rect x="39" y="30.5" width="1" height="1" fill="black"/>
<rect x="39" y="31.5" width="1" height="1" fill="black"/>
<rect x="39" y="32.5" width="1" height="1" fill="black"/>
</svg>
