<svg width="48" height="48" viewBox="0 0 48 48" fill="none" xmlns="http://www.w3.org/2000/svg">
<rect x="29.5" y="8" width="1" height="1" fill="#323230"/>
<rect x="28.5" y="8" width="1" height="1" fill="#323230"/>
<rect x="27.5" y="8" width="1" height="1" fill="#323230"/>
<rect x="26.5" y="8" width="1" height="1" fill="#323230"/>
<rect x="25.5" y="8" width="1" height="1" fill="#323230"/>
<rect x="24.5" y="8" width="1" height="1" fill="#323230"/>
<rect x="23.5" y="8" width="1" height="1" fill="#323230"/>
<rect x="22.5" y="8" width="1" height="1" fill="#323230"/>
<rect x="21.5" y="8" width="1" height="1" fill="#323230"/>
<rect x="20.5" y="8" width="1" height="1" fill="#323230"/>
<rect x="19.5" y="8" width="1" height="1" fill="#323230"/>
<rect x="18.5" y="8" width="1" height="1" fill="#323230"/>
<rect x="17.5" y="8" width="1" height="1" fill="#323230"/>
<rect x="16.5" y="8" width="1" height="1" fill="#323230"/>
<rect x="15.5" y="8" width="1" height="1" fill="#323230"/>
<rect x="14.5" y="8" width="1" height="1" fill="#323230"/>
<rect x="13.5" y="8" width="1" height="1" fill="#323230"/>
<rect x="12.5" y="8" width="1" height="1" fill="#323230"/>
<rect x="11.5" y="8" width="1" height="1" fill="#323230"/>
<rect x="11.5" y="9" width="1" height="1" fill="#323230"/>
<rect x="11.5" y="10" width="1" height="1" fill="#323230"/>
<rect x="11.5" y="11" width="1" height="1" fill="#323230"/>
<rect x="11.5" y="12" width="1" height="1" fill="#323230"/>
<rect x="11.5" y="13" width="1" height="1" fill="#323230"/>
<rect x="11.5" y="14" width="1" height="1" fill="#323230"/>
<rect x="11.5" y="15" width="1" height="1" fill="#323230"/>
<rect x="11.5" y="16" width="1" height="1" fill="#323230"/>
<rect x="11.5" y="17" width="1" height="1" fill="#323230"/>
<rect x="11.5" y="18" width="1" height="1" fill="#323230"/>
<rect x="11.5" y="19" width="1" height="1" fill="#323230"/>
<rect x="11.5" y="20" width="1" height="1" fill="#323230"/>
<rect x="11.5" y="21" width="1" height="1" fill="#323230"/>
<rect x="11.5" y="22" width="1" height="1" fill="#323230"/>
<rect x="11.5" y="23" width="1" height="1" fill="#323230"/>
<rect x="11.5" y="24" width="1" height="1" fill="#323230"/>
<rect x="11.5" y="25" width="1" height="1" fill="#323230"/>
<rect x="11.5" y="26" width="1" height="1" fill="#323230"/>
<rect x="11.5" y="27" width="1" height="1" fill="#323230"/>
<rect x="30.5" y="9" width="1" height="1" fill="#323230"/>
<rect x="31.5" y="10" width="1" height="1" fill="#323230"/>
<rect x="32.5" y="11" width="1" height="1" fill="#323230"/>
<rect x="33.5" y="12" width="1" height="1" fill="#323230"/>
<rect x="34.5" y="13" width="1" height="1" fill="#323230"/>
<rect x="35.5" y="14" width="1" height="1" fill="#323230"/>
<rect x="35.5" y="15" width="1" height="1" fill="#323230"/>
<rect x="35.5" y="16" width="1" height="1" fill="#323230"/>
<rect x="35.5" y="17" width="1" height="1" fill="#323230"/>
<rect x="35.5" y="18" width="1" height="1" fill="#323230"/>
<rect x="35.5" y="19" width="1" height="1" fill="#323230"/>
<rect x="35.5" y="20" width="1" height="1" fill="#323230"/>
<rect x="35.5" y="21" width="1" height="1" fill="#323230"/>
<rect x="35.5" y="22" width="1" height="1" fill="#323230"/>
<rect x="35.5" y="23" width="1" height="1" fill="#323230"/>
<rect x="35.5" y="24" width="1" height="1" fill="#323230"/>
<rect x="35.5" y="25" width="1" height="1" fill="#323230"/>
<rect x="35.5" y="26" width="1" height="1" fill="#323230"/>
<rect x="35.5" y="27" width="1" height="1" fill="#323230"/>
<rect x="35.5" y="28" width="1" height="1" fill="#323230"/>
<rect x="35.5" y="29" width="1" height="1" fill="#323230"/>
<rect x="35.5" y="30" width="1" height="1" fill="#323230"/>
<rect x="35.5" y="31" width="1" height="1" fill="#323230"/>
<rect x="35.5" y="32" width="1" height="1" fill="#323230"/>
<rect x="35.5" y="33" width="1" height="1" fill="#323230"/>
<rect x="35.5" y="34" width="1" height="1" fill="#323230"/>
<rect x="35.5" y="35" width="1" height="1" fill="#323230"/>
<rect x="35.5" y="36" width="1" height="1" fill="#323230"/>
<rect x="35.5" y="37" width="1" height="1" fill="#323230"/>
<rect x="35.5" y="38" width="1" height="1" fill="#323230"/>
<rect x="35.5" y="39" width="1" height="1" fill="#323230"/>
<rect x="34.5" y="39" width="1" height="1" fill="#323230"/>
<rect x="33.5" y="39" width="1" height="1" fill="#323230"/>
<rect x="32.5" y="39" width="1" height="1" fill="#323230"/>
<rect x="31.5" y="39" width="1" height="1" fill="#323230"/>
<rect x="30.5" y="39" width="1" height="1" fill="#323230"/>
<rect x="29.5" y="39" width="1" height="1" fill="#323230"/>
<rect x="28.5" y="39" width="1" height="1" fill="#323230"/>
<rect x="27.5" y="39" width="1" height="1" fill="#323230"/>
<rect x="26.5" y="39" width="1" height="1" fill="#323230"/>
<rect x="25.5" y="39" width="1" height="1" fill="#323230"/>
<rect x="24.5" y="39" width="1" height="1" fill="#323230"/>
<rect x="23.5" y="39" width="1" height="1" fill="#323230"/>
<rect x="22.5" y="39" width="1" height="1" fill="#323230"/>
<rect x="21.5" y="39" width="1" height="1" fill="#323230"/>
<rect x="20.5" y="39" width="1" height="1" fill="#323230"/>
<rect x="19.5" y="39" width="1" height="1" fill="#323230"/>
<rect x="18.5" y="39" width="1" height="1" fill="#323230"/>
<rect x="17.5" y="39" width="1" height="1" fill="#323230"/>
<rect x="16.5" y="39" width="1" height="1" fill="#323230"/>
<rect x="15.5" y="39" width="1" height="1" fill="#323230"/>
<rect x="14.5" y="39" width="1" height="1" fill="#323230"/>
<rect x="13.5" y="39" width="1" height="1" fill="#323230"/>
<rect x="12.5" y="39" width="1" height="1" fill="#323230"/>
<rect x="11.5" y="39" width="1" height="1" fill="#323230"/>
<rect x="11.5" y="38" width="1" height="1" fill="#323230"/>
<rect x="11.5" y="37" width="1" height="1" fill="#323230"/>
<rect x="11.5" y="36" width="1" height="1" fill="#323230"/>
<rect x="11.5" y="35" width="1" height="1" fill="#323230"/>
<rect x="11.5" y="34" width="1" height="1" fill="#323230"/>
<rect x="11.5" y="33" width="1" height="1" fill="#323230"/>
<rect x="11.5" y="32" width="1" height="1" fill="#323230"/>
<rect x="11.5" y="31" width="1" height="1" fill="#323230"/>
<rect x="11.5" y="30" width="1" height="1" fill="#323230"/>
<rect x="11.5" y="29" width="1" height="1" fill="#323230"/>
<rect x="11.5" y="28" width="1" height="1" fill="#323230"/>
<rect x="34.5" y="14" width="1" height="1" fill="#323230"/>
<rect x="33.5" y="14" width="1" height="1" fill="#323230"/>
<rect x="32.5" y="14" width="1" height="1" fill="#323230"/>
<rect x="31.5" y="14" width="1" height="1" fill="#323230"/>
<rect x="30.5" y="14" width="1" height="1" fill="#323230"/>
<rect x="29.5" y="14" width="1" height="1" fill="#323230"/>
<rect x="15.5" y="18" width="1" height="1" fill="#323230"/>
<rect x="15.5" y="21" width="1" height="1" fill="#323230"/>
<rect x="19.5" y="18" width="1" height="1" fill="#323230"/>
<rect x="23.5" y="18" width="1" height="1" fill="#323230"/>
<rect x="29.5" y="21" width="1" height="1" fill="#323230"/>
<rect x="26.5" y="24" width="1" height="1" fill="#323230"/>
<rect x="19.5" y="21" width="1" height="1" fill="#323230"/>
<rect x="24.5" y="21" width="1" height="1" fill="#323230"/>
<rect x="18.5" y="24" width="1" height="1" fill="#323230"/>
<rect x="21.5" y="24" width="1" height="1" fill="#323230"/>
<rect x="16.5" y="18" width="1" height="1" fill="#323230"/>
<rect x="16.5" y="21" width="1" height="1" fill="#323230"/>
<rect x="20.5" y="18" width="1" height="1" fill="#323230"/>
<rect x="24.5" y="18" width="1" height="1" fill="#323230"/>
<rect x="30.5" y="21" width="1" height="1" fill="#323230"/>
<rect x="27.5" y="24" width="1" height="1" fill="#323230"/>
<rect x="20.5" y="21" width="1" height="1" fill="#323230"/>
<rect x="25.5" y="21" width="1" height="1" fill="#323230"/>
<rect x="19.5" y="24" width="1" height="1" fill="#323230"/>
<rect x="22.5" y="24" width="1" height="1" fill="#323230"/>
<rect x="17.5" y="18" width="1" height="1" fill="#323230"/>
<rect x="17.5" y="21" width="1" height="1" fill="#323230"/>
<rect x="21.5" y="18" width="1" height="1" fill="#323230"/>
<rect x="25.5" y="18" width="1" height="1" fill="#323230"/>
<rect x="31.5" y="21" width="1" height="1" fill="#323230"/>
<rect x="28.5" y="24" width="1" height="1" fill="#323230"/>
<rect x="21.5" y="21" width="1" height="1" fill="#323230"/>
<rect x="26.5" y="21" width="1" height="1" fill="#323230"/>
<rect x="20.5" y="24" width="1" height="1" fill="#323230"/>
<rect x="23.5" y="24" width="1" height="1" fill="#323230"/>
<rect x="24.5" y="24" width="1" height="1" fill="#323230"/>
<rect x="22.5" y="21" width="1" height="1" fill="#323230"/>
<rect x="27.5" y="21" width="1" height="1" fill="#323230"/>
<rect x="30.5" y="24" width="1" height="1" fill="#323230"/>
<rect x="31.5" y="24" width="1" height="1" fill="#323230"/>
<rect x="16.5" y="24" width="1" height="1" fill="#323230"/>
<rect x="15.5" y="24" width="1" height="1" fill="#323230"/>
<rect x="30.5" y="18" width="1" height="1" fill="#323230"/>
<rect x="31.5" y="18" width="1" height="1" fill="#323230"/>
<rect x="27.5" y="18" width="1" height="1" fill="#323230"/>
<rect x="28.5" y="18" width="1" height="1" fill="#323230"/>
<rect x="29.5" y="13" width="1" height="1" fill="#323230"/>
<rect x="29.5" y="12" width="1" height="1" fill="#323230"/>
<rect x="29.5" y="11" width="1" height="1" fill="#323230"/>
<rect x="29.5" y="10" width="1" height="1" fill="#323230"/>
<rect x="29.5" y="9" width="1" height="1" fill="#323230"/>
</svg>
